<svg width="29" height="66" viewBox="0 0 29 66" fill="none" xmlns="http://www.w3.org/2000/svg">
<path d="M1.1006 63.8401C0.395897 62.9286 1.72868e-05 61.6926 1.73304e-05 60.4038C1.7374e-05 59.115 0.395897 57.8789 1.1006 56.9674L19.7075 32.9083L1.1006 8.84907C0.415869 7.93238 0.0369855 6.70461 0.0455514 5.43022C0.0541155 4.15583 0.449442 2.93677 1.14639 2.0356C1.84333 1.13444 2.78613 0.623274 3.77172 0.612204C4.75731 0.601126 5.70684 1.09103 6.41579 1.9764L27.6803 29.4719C28.385 30.3834 28.7809 31.6194 28.7809 32.9083C28.7809 34.1971 28.385 35.4331 27.6803 36.3446L6.41578 63.8401C5.71087 64.7513 4.75493 65.2632 3.75819 65.2632C2.76144 65.2632 1.80551 64.7513 1.1006 63.8401Z" fill="currentColor"/>
</svg>
