<svg width="29" height="66" viewBox="0 0 29 66" fill="none" xmlns="http://www.w3.org/2000/svg">
<path d="M27.6803 63.8401C28.385 62.9286 28.7809 61.6926 28.7809 60.4038C28.7809 59.115 28.385 57.8789 27.6803 56.9674L9.07336 32.9083L27.6803 8.84907C28.365 7.93238 28.7439 6.70461 28.7353 5.43022C28.7268 4.15583 28.3314 2.93677 27.6345 2.0356C26.9376 1.13444 25.9948 0.623274 25.0092 0.612204C24.0236 0.601126 23.074 1.09103 22.3651 1.9764L1.10058 29.4719C0.395876 30.3834 -1.13735e-06 31.6194 -1.09378e-06 32.9083C-1.05021e-06 34.1971 0.395877 35.4331 1.10058 36.3446L22.3651 63.8401C23.07 64.7513 24.0259 65.2632 25.0227 65.2632C26.0194 65.2632 26.9754 64.7513 27.6803 63.8401Z" fill="currentColor"/>
</svg>
