<svg width="20" height="17" viewBox="0 0 20 17" fill="none" xmlns="http://www.w3.org/2000/svg">
<path d="M10.088 1.81978C11.562 1.09516 13.1917 0.744742 14.8333 0.799506C16.4748 0.854271 18.0776 1.31253 19.5 2.13378C19.6347 2.21154 19.7494 2.31964 19.8349 2.44949C19.9205 2.57934 19.9746 2.72735 19.993 2.88178L20 2.99978V15.9998C20 16.1753 19.9538 16.3478 19.866 16.4998C19.7782 16.6518 19.652 16.778 19.5 16.8658C19.348 16.9536 19.1755 16.9998 19 16.9998C18.8245 16.9998 18.652 16.9535 18.5 16.8658C17.2838 16.1636 15.9043 15.794 14.5 15.794C13.0957 15.794 11.7162 16.1636 10.5 16.8658C10.348 16.9536 10.1755 16.9998 10 16.9998C9.82446 16.9998 9.65202 16.9536 9.5 16.8658C8.32866 16.1894 7.00494 15.821 5.65257 15.7952C4.30021 15.7693 2.96337 16.0867 1.767 16.7178L1.44 16.8978L1.337 16.9418L1.288 16.9578L1.178 16.9838L1.117 16.9938L1 16.9998H0.958L0.848 16.9878L0.771 16.9738L0.663 16.9418L0.537 16.8858L0.442 16.8298L0.353 16.7628L0.293 16.7068L0.22 16.6248L0.156 16.5358L0.134 16.4998L0.102 16.4398L0.0580001 16.3368L0.0420001 16.2878L0.016 16.1778L0.00600004 16.1168L0.00200009 16.0678L0 15.9998V2.99978C4.45922e-06 2.82425 0.0462129 2.65181 0.133981 2.4998C0.221749 2.34778 0.347985 2.22155 0.5 2.13378C1.9224 1.31253 3.52518 0.854271 5.16672 0.799506C6.80827 0.744742 8.43803 1.09516 9.912 1.81978L10 1.86378L10.088 1.81978Z" fill="#D5CFFB"/>
</svg>
