<svg xmlns="http://www.w3.org/2000/svg" width="55" height="73" fill="none"><g clip-path="url(#a)"><path fill="#ED6C30" d="M12.637 43.823c1.818-.525 3.386-1.87 4.12-4.192.443-1.409 1.062-5.047 2.76-4.106.811.445.799 1.99.704 2.954-.202 1.979-.872 3.787-1.332 5.669-.473 1.95-.88 3.912-1.173 5.931-.98 6.684-.709 14.384 2.853 19.727.602.913 2.119 3.023 3.12 3.069.618.022.008-.947-.164-1.272a11.995 11.995 0 0 1-.863-2.15c-2.634-8.92 3.858-15.712 8.125-21 2.045-2.537 3.678-5.229 5.148-8.371.146-.303.468-1.318.885-1.107.494.251.546 1.751.7 2.31.292 1.072.744 2.241 1.324 3.08 1.121 1.63 2.69 2.731 4.387 2.583.064-.005.25-.045.477-.114.357-.103 1.31-.268 1.053-1.032-.134-.394-.525-.36-.804-.468-3.584-1.46-3.502-6.444-2.922-10.448 1.049-7.289 3.953-14.178 1.89-21.672C40.495 4.38 32.88-1.135 25.97.382c-1.886.41-4.06 1.22-5.753 2.43-1.8 1.289-3.773 3.05-5.178 5.036-1.809 2.549-2.96 5.817-3.3 9.279-.4 4.003.563 7.779 1.44 11.56 1.057 4.562 2.273 12.01-2.119 14.24-.215.115-.644.2-.795.502-.558 1.107 2.123.462 2.372.394Z"/><path fill="#FCC21B" d="M25.725 12.507c-.91-1.015-2.187-.52-3.046.348a4.927 4.927 0 0 0-1.113 1.745c-.107.296-.232.673-.232 1.01 0 .45.202.895.116 1.357-.722.188-1.616-2.567-1.706-3.206-.722-5.035 2.853-9.187 6.304-9.991 5.822-1.352 9.17 5.418 8.499 11.429-.417 3.74-2.308 6.313-4.233 8.88-1.594 2.127-3.072 3.952-3.587 6.718-.09.49-.07 1.243.038 1.728.09.416.262.798.27 1.249.027.946-.665-.291-.824-.53-1.916-2.87-2.462-7.107-1.95-10.814.33-2.395 1.619-4.106 2.07-6.399.262-1.306.236-2.577-.606-3.524Z"/></g><defs><clipPath id="a"><path fill="#fff" d="M55 73H0V0h55z"/></clipPath></defs></svg>