<svg width="33" height="33" viewBox="0 0 38 33" fill="current" xmlns="http://www.w3.org/2000/svg">
<path d="M27.1897 0C23.8991 0 20.9786 1.28227 19 3.48622C17.0214 1.28227 14.1009 0 10.8103 0C7.94433 0.00342331 5.19669 1.1289 3.17011 3.12956C1.14352 5.13023 0.00346766 7.84272 0 10.6721C0 22.3693 17.3309 31.7155 18.068 32.1084C18.3544 32.2607 18.6747 32.3404 19 32.3404C19.3253 32.3404 19.6456 32.2607 19.932 32.1084C20.6691 31.7155 38 22.3693 38 10.6721C37.9965 7.84272 36.8565 5.13023 34.8299 3.12956C32.8033 1.1289 30.0557 0.00342331 27.1897 0ZM26.2904 23.0194C24.0092 24.9304 21.5706 26.6503 19 28.1614C16.4294 26.6503 13.9908 24.9304 11.7096 23.0194C8.16017 20.0134 3.93103 15.4292 3.93103 10.6721C3.93103 8.87091 4.65582 7.14351 5.94594 5.86989C7.23606 4.59627 8.98584 3.88076 10.8103 3.88076C13.7259 3.88076 16.1664 5.40072 17.1803 7.84883C17.3278 8.20572 17.5797 8.51112 17.9038 8.7261C18.2279 8.94107 18.6095 9.05588 19 9.05588C19.3905 9.05588 19.7721 8.94107 20.0962 8.7261C20.4203 8.51112 20.6722 8.20572 20.8197 7.84883C21.8336 5.40072 24.2741 3.88076 27.1897 3.88076C29.0142 3.88076 30.7639 4.59627 32.0541 5.86989C33.3442 7.14351 34.069 8.87091 34.069 10.6721C34.069 15.4292 29.8398 20.0134 26.2904 23.0194Z" fill="current"/>
</svg>
