<svg width="20" height="31" viewBox="0 0 36 31" fill="none" xmlns="http://www.w3.org/2000/svg">
<path d="M36 10.0128C36 21.3175 19.3195 30.4679 18.6091 30.8458C18.4219 30.947 18.2126 31 18 31C17.7874 31 17.5781 30.947 17.3909 30.8458C16.6805 30.4679 0 21.3175 0 10.0128C0.00297761 7.35814 1.05374 4.81309 2.92176 2.93598C4.78978 1.05887 7.32251 0.0029921 9.96429 0C13.283 0 16.1887 1.43409 18 3.85815C19.8113 1.43409 22.717 0 26.0357 0C28.6775 0.0029921 31.2102 1.05887 33.0782 2.93598C34.9463 4.81309 35.997 7.35814 36 10.0128Z" fill="url(#paint0_linear_108_337)"/>
<defs>
<linearGradient id="paint0_linear_108_337" x1="18" y1="0" x2="18" y2="31" gradientUnits="userSpaceOnUse">
<stop stop-color="#6F61C6"/>
<stop offset="1" stop-color="#97A4E8"/>
</linearGradient>
</defs>
</svg>
