<svg width="20" height="35" viewBox="0 0 40 35" fill="none" xmlns="http://www.w3.org/2000/svg">
<path d="M28.9286 0C25.2411 0 22.0125 1.58571 20 4.26607C17.9875 1.58571 14.7589 0 11.0714 0C8.13612 0.00330846 5.32198 1.17082 3.2464 3.2464C1.17082 5.32198 0.00330846 8.13612 0 11.0714C0 23.5714 18.5339 33.6893 19.3232 34.1071C19.5312 34.219 19.7638 34.2776 20 34.2776C20.2362 34.2776 20.4688 34.219 20.6768 34.1071C21.4661 33.6893 40 23.5714 40 11.0714C39.9967 8.13612 38.8292 5.32198 36.7536 3.2464C34.678 1.17082 31.8639 0.00330846 28.9286 0ZM20 31.2143C16.7393 29.3143 2.85714 20.6589 2.85714 11.0714C2.85998 8.89373 3.72632 6.80605 5.26618 5.26618C6.80605 3.72632 8.89373 2.85998 11.0714 2.85714C14.5446 2.85714 17.4607 4.70714 18.6786 7.67857C18.7862 7.94059 18.9693 8.16469 19.2046 8.32241C19.4399 8.48012 19.7167 8.56433 20 8.56433C20.2833 8.56433 20.5601 8.48012 20.7954 8.32241C21.0307 8.16469 21.2138 7.94059 21.3214 7.67857C22.5393 4.70179 25.4554 2.85714 28.9286 2.85714C31.1063 2.85998 33.194 3.72632 34.7338 5.26618C36.2737 6.80605 37.14 8.89373 37.1429 11.0714C37.1429 20.6446 23.2571 29.3125 20 31.2143Z" fill="#6F61C6"/>
</svg>
