<svg width="25" height="35" viewBox="0 0 35 35" fill="none" xmlns="http://www.w3.org/2000/svg">
<path d="M12.5179 5.96402C14.7351 1.98801 15.8428 0 17.5 0C19.1572 0 20.2649 1.98801 22.4821 5.96402L23.0561 6.99302C23.6861 8.12352 24.0011 8.68878 24.4911 9.06153C24.9811 9.43428 25.5936 9.57253 26.8185 9.84903L27.9315 10.101C32.2364 11.0758 34.3871 11.5623 34.8998 13.209C35.4108 14.854 33.9444 16.5708 31.0097 20.0026L30.2502 20.8898C29.4172 21.8646 28.999 22.3528 28.8117 22.9548C28.6245 23.5586 28.6875 24.2096 28.8135 25.5098L28.929 26.6946C29.3717 31.2743 29.594 33.5634 28.2535 34.5801C26.913 35.5986 24.8971 34.6694 20.8687 32.8143L19.8239 32.3348C18.6795 31.8063 18.1072 31.5438 17.5 31.5438C16.8928 31.5438 16.3205 31.8063 15.1761 32.3348L14.1331 32.8143C10.1029 34.6694 8.08697 35.5969 6.74825 34.5819C5.40603 33.5634 5.62828 31.2743 6.07102 26.6946L6.18652 25.5116C6.31251 24.2096 6.37551 23.5586 6.18652 22.9566C6.00102 22.3528 5.58278 21.8646 4.7498 20.8916L3.99032 20.0026C1.05564 16.5726 -0.410829 14.8558 0.100159 13.209C0.612897 11.5623 2.76535 11.074 7.07024 10.101L8.18322 9.84903C9.40644 9.57253 10.0172 9.43428 10.5089 9.06153C10.9989 8.68878 11.3139 8.12352 11.9439 6.99302L12.5179 5.96402Z" fill="white"/>
</svg>
