<svg width="30" height="30" viewBox="0 0 34 34" fill="current" xmlns="http://www.w3.org/2000/svg">
<path d="M2.83333 34C2.83333 34 0 34 0 31.1667C0 28.3333 2.83333 19.8333 17 19.8333C31.1667 19.8333 34 28.3333 34 31.1667C34 34 31.1667 34 31.1667 34H2.83333ZM17 17C19.2543 17 21.4163 16.1045 23.0104 14.5104C24.6045 12.9163 25.5 10.7543 25.5 8.5C25.5 6.24566 24.6045 4.08365 23.0104 2.48959C21.4163 0.895533 19.2543 0 17 0C14.7457 0 12.5837 0.895533 10.9896 2.48959C9.39553 4.08365 8.5 6.24566 8.5 8.5C8.5 10.7543 9.39553 12.9163 10.9896 14.5104C12.5837 16.1045 14.7457 17 17 17Z" fill="current"/>
</svg>
