<svg width="23" height="10" viewBox="0 0 23 10" fill="none" xmlns="http://www.w3.org/2000/svg">
<path d="M4.84961 7.74219C4.61523 7.74219 4.26693 7.71289 3.80469 7.6543C3.34896 7.5957 2.92904 7.41992 2.54492 7.12695C2.16732 6.83398 1.97852 6.33268 1.97852 5.62305V3.2207H0.982422V1.58008H1.97852V0.359375H3.69727V1.58008H4.81055V3.2207H3.69727V5.62305C3.69727 5.75326 3.71354 5.83138 3.74609 5.85742C3.85677 5.9681 4.22461 6.02344 4.84961 6.02344V7.74219ZM5.54297 9.23633H5.43555V7.76172C5.86523 7.76172 6.16797 7.74544 6.34375 7.71289C6.52604 7.68034 6.66276 7.61523 6.75391 7.51758C6.84505 7.42643 6.92643 7.27018 6.99805 7.04883L5.21094 2.0293H6.95898L7.7793 4.69531C8.06576 3.82943 8.35221 2.94076 8.63867 2.0293H10.3672C9.17578 5.57096 8.52148 7.48177 8.4043 7.76172C8.07878 8.46484 7.66211 8.88477 7.1543 9.02148C6.65299 9.16471 6.11589 9.23633 5.54297 9.23633ZM13.541 6.22852C13.9251 6.22852 14.1921 6.07552 14.3418 5.76953C14.498 5.46354 14.5762 5.11523 14.5762 4.72461C14.5762 4.34049 14.498 3.99544 14.3418 3.68945C14.1921 3.38346 13.9251 3.23047 13.541 3.23047C13.1569 3.23047 12.8867 3.38346 12.7305 3.68945C12.5807 3.99544 12.5059 4.34049 12.5059 4.72461C12.5059 5.11523 12.5807 5.46354 12.7305 5.76953C12.8867 6.07552 13.1569 6.22852 13.541 6.22852ZM12.4961 9.02148H10.7773V1.87305H12.4961V2.08789C12.8216 1.92513 13.1699 1.84375 13.541 1.84375C14.2572 1.84375 14.8691 2.12695 15.377 2.69336C15.8848 3.25326 16.1387 3.93034 16.1387 4.72461C16.1387 5.52539 15.8848 6.20898 15.377 6.77539C14.8691 7.33529 14.2572 7.61523 13.541 7.61523C13.1699 7.61523 12.8216 7.53385 12.4961 7.37109V9.02148ZM20.377 4.01172C20.2858 3.38021 19.9473 3.06445 19.3613 3.06445C18.7754 3.06445 18.4401 3.38021 18.3555 4.01172H20.377ZM19.3613 7.75195C18.6322 7.75195 18.0072 7.51432 17.4863 7.03906C16.972 6.5638 16.7148 5.80859 16.7148 4.77344C16.7148 2.78776 17.597 1.79492 19.3613 1.79492C21.1322 1.79492 22.0176 2.78776 22.0176 4.77344C22.0176 4.97526 21.998 5.17383 21.959 5.36914H18.3359C18.3555 5.67513 18.4368 5.9388 18.5801 6.16016C18.7298 6.375 18.9902 6.48242 19.3613 6.48242C19.5566 6.48242 19.7487 6.42057 19.9375 6.29688C20.1263 6.16667 20.2598 6.02018 20.3379 5.85742H21.832C21.4544 7.12044 20.6309 7.75195 19.3613 7.75195Z" fill="#DDCBFA"/>
</svg>
