<svg width="23" height="37" viewBox="0 0 30 37" fill="none" xmlns="http://www.w3.org/2000/svg">
<path d="M1 33.0833V7.22222C1 5.04444 1 3.95556 1.42389 3.12333C1.79722 2.39028 2.39028 1.79722 3.12333 1.42389C3.95556 1 5.04444 1 7.22222 1H25.1111C26.2 1 26.7444 1 27.1625 1.21194C27.5276 1.39869 27.8244 1.69611 28.0103 2.06167C28.2222 2.47778 28.2222 3.02222 28.2222 4.11111V27.0556C28.2222 28.1444 28.2222 28.6889 28.0083 29.105C27.8231 29.4704 27.5271 29.7679 27.1625 29.9547C26.7444 30.1667 26.2 30.1667 25.115 30.1667H5.375C4.21468 30.1667 3.10188 30.6276 2.28141 31.4481C1.46094 32.2685 1 33.3813 1 34.5417C1 35.3467 1.65333 36 2.45833 36H23.1706C24.2575 36 24.8039 36 25.2181 35.7881C25.5833 35.6015 25.8801 35.3041 26.0658 34.9383C26.2778 34.5222 26.2778 33.9778 26.2778 32.8889V30.1667" fill="white"/>
<path d="M1 33.0833V7.22222C1 5.04444 1 3.95556 1.42389 3.12333C1.79722 2.39028 2.39028 1.79722 3.12333 1.42389C3.95556 1 5.04444 1 7.22222 1H25.1111C26.2 1 26.7444 1 27.1625 1.21194C27.5276 1.39869 27.8244 1.69611 28.0103 2.06167C28.2222 2.47778 28.2222 3.02222 28.2222 4.11111V27.0556C28.2222 28.1444 28.2222 28.6889 28.0083 29.105C27.8231 29.4704 27.5271 29.7679 27.1625 29.9547C26.7444 30.1667 26.2 30.1667 25.115 30.1667H5.375C4.21468 30.1667 3.10188 30.6276 2.28141 31.4481C1.46094 32.2685 1 33.3813 1 34.5417C1 35.3467 1.65333 36 2.45833 36H23.1706C24.2575 36 24.8039 36 25.2181 35.7881C25.5833 35.6015 25.8801 35.3041 26.0658 34.9383C26.2778 34.5222 26.2778 33.9778 26.2778 32.8889V30.1667" stroke="white" stroke-width="2" stroke-linecap="round" stroke-linejoin="round"/>
</svg>
