<svg width="43" height="41" viewBox="0 0 43 41" fill="none" xmlns="http://www.w3.org/2000/svg">
<path d="M40.9782 18.4459L32.5219 25.8259L35.055 36.8134C35.1891 37.3878 35.1508 37.9889 34.9451 38.5417C34.7393 39.0945 34.3752 39.5743 33.8982 39.9213C33.4212 40.2682 32.8525 40.4669 32.2632 40.4924C31.6739 40.5179 31.0902 40.3691 30.585 40.0646L21.0019 34.2521L11.4394 40.0646C10.9342 40.3691 10.3505 40.5179 9.76124 40.4924C9.17197 40.4669 8.60328 40.2682 8.12628 39.9213C7.64928 39.5743 7.28514 39.0945 7.07938 38.5417C6.87362 37.9889 6.83537 37.3878 6.96942 36.8134L9.49879 25.8371L1.04067 18.4459C0.593308 18.06 0.269821 17.5507 0.110772 16.9818C-0.0482777 16.4128 -0.0358089 15.8096 0.146614 15.2477C0.329037 14.6858 0.673294 14.1903 1.13621 13.8233C1.59913 13.4563 2.16011 13.2341 2.74879 13.1846L13.8975 12.219L18.2494 1.839C18.4767 1.29434 18.86 0.829103 19.3511 0.501859C19.8423 0.174615 20.4192 0 21.0094 0C21.5996 0 22.1766 0.174615 22.6677 0.501859C23.1588 0.829103 23.5422 1.29434 23.7694 1.839L28.1344 12.219L39.2794 13.1846C39.8681 13.2341 40.4291 13.4563 40.892 13.8233C41.3549 14.1903 41.6992 14.6858 41.8816 15.2477C42.064 15.8096 42.0765 16.4128 41.9174 16.9818C41.7584 17.5507 41.4349 18.06 40.9875 18.4459H40.9782Z" fill="white"/>
</svg>
