<svg xmlns="http://www.w3.org/2000/svg" width="151" height="151" fill="none"><g clip-path="url(#a)"><g fill="#ED6C30"><path d="M84.554 99.064c.065-.3.23-.572.266-.902.005-.089.005-.171.011-.26-.006-.006-.011-.011-.023-.011-.88-.443-.543-1.558-.342-2.348.088-.3.26-.555.318-.885.07-.401.065-.808.16-1.21.141-.565.513-.996.654-1.55.153-.65 0-1.322.236-1.923.395-1.032.89-2.012 1.274-3.032a.511.511 0 0 1 .124-.325c.035-.106.088-.206.118-.306a6.151 6.151 0 0 0 .3-2.224c-.017-.242-.046-.873.237-.92.601-.083 1.74 1.292 2.111 1.675.407.407.82.808 1.227 1.203 4.931 4.73 9.986 8.606 14.575 12.464.537.454 1.08.902 1.611 1.35.271.236.294.354.46.626.141.224.418.336.46.625.076.466.047 1.097 0 1.581-.006.065-.018.135-.03.206.154.142.331.248.378.472.1.466.094 1.097.082 1.581-.041 1.327-.259 2.619-.548 3.911-.183.831-.39 1.734-.437 2.583-.047.944-.053 2.365-1.209 1.658-1.038-.626-2.1-1.227-3.167-1.858-2.318-1.351-4.69-2.767-7.226-4.029-3.41-1.699-6.883-3.368-10.157-5.309-.3-.183-.667-.36-.991-.495-.914-.407-.637-1.546-.472-2.348Z"/><path d="M109.109 112.92c.372-3.05.384-4.277.407-6.837.03-2.365.136-7.886-.318-10.947-.266-1.74-.502-2.778-2.094-3.061-.614-.106-1.174.36-1.498.85-.49.748-.643 1.562-.767 2.453-.372 2.707-.826 8.317-.962 11.036-.059 1.215-.011 2.878 0 4.105.036 3.35.655 6.258 2.767 6.211 1.899-.059 2.294-2.412 2.465-3.81Z"/></g><g fill="#ED6C30"><path d="M65.007 99.395c-.065-.301-.23-.573-.272-.909-.005-.088-.005-.17-.011-.26.011 0 .023-.011.03-.017.884-.437.542-1.557.335-2.353-.082-.295-.26-.555-.312-.891-.071-.401-.065-.808-.165-1.203-.142-.567-.508-1.003-.65-1.558-.159-.642 0-1.31-.235-1.922-.395-1.033-.885-2.006-1.274-3.032a.53.53 0 0 0-.13-.33c-.035-.107-.088-.207-.118-.307a6.262 6.262 0 0 1-.3-2.224c.017-.23.046-.861-.23-.902-.596-.089-1.74 1.291-2.112 1.675-.407.407-.826.802-1.227 1.191-4.925 4.725-9.98 8.6-14.57 12.47-.536.454-1.085.896-1.61 1.35-.271.224-.295.354-.46.614-.141.224-.419.336-.46.625-.077.478-.041 1.103 0 1.581.006.065.018.135.036.212-.154.13-.337.242-.378.472-.094.472-.094 1.097-.077 1.575.047 1.333.266 2.625.543 3.916.183.832.39 1.734.437 2.584.035.955.035 2.371 1.197 1.669 1.032-.619 2.094-1.221 3.167-1.858 2.318-1.351 4.684-2.76 7.232-4.034 3.403-1.705 6.877-3.363 10.151-5.315.307-.177.66-.354.997-.501.896-.378.62-1.516.466-2.318Z"/><path d="M40.446 113.244c-.378-3.044-.384-4.276-.413-6.83-.024-2.371-.13-7.88.33-10.948.26-1.746.502-2.778 2.094-3.061.608-.112 1.18.354 1.498.85.484.743.637 1.556.761 2.447.366 2.713.826 8.317.962 11.036.059 1.215.011 2.89 0 4.105-.036 3.351-.655 6.259-2.76 6.206-1.906-.054-2.295-2.401-2.472-3.805Z"/></g><path fill="#ED6C30" d="M76.485 28.413c-1.156-.012-2.07-1.198-2.029-2.654.224-4 .442-8.064.678-12.157.03-.643-.053-1.245.03-1.87.165-1.215.271-2.465.342-3.704.059-1.097-.065-2.377.36-3.403.33-.79 1.274-1.581 2.005-1.404 1.422.324 1.34 3.226 1.245 4.583-.189 2.548-.165 5.108-.2 7.656-.048 3.492-.09 6.942-.213 10.37-.053 1.445-1.044 2.6-2.218 2.583Z"/><path fill="#78A3AD" d="M58.542 57.527c.16-3.108.46-6.205.908-9.272a79.312 79.312 0 0 1 1.11-5.946 81.836 81.836 0 0 1 2.17-7.715 64.72 64.72 0 0 1 3.745-8.96c1.51-2.96 3.268-5.886 5.044-8.122 1.262-1.592 2.707-3.037 4.3-3.486 1.77-.507 3.88.602 5.308 2.183 2.743 3.05 5.185 7.213 7.16 12.033a52.86 52.86 0 0 1 2.396 7.184c4.948 19.376 2.636 40.328-3.168 59.627-.607 1.976-1.445 3.934-1.988 6.081-.017.089-.064.16-.088.254-.148.431-.254.678-.307.708-1.392 2.949-5.462 5.132-10.375 5.067-4.925-.03-8.883-2.277-10.205-5.297l-.212-.684c-4.217-13.986-6.57-28.95-5.798-43.655Z"/><mask id="b" width="36" height="95" x="58" y="13" maskUnits="userSpaceOnUse" style="mask-type:luminance"><path fill="#fff" d="M58.542 57.527c.16-3.108.46-6.205.908-9.272a79.312 79.312 0 0 1 1.11-5.946 81.836 81.836 0 0 1 2.17-7.715 64.72 64.72 0 0 1 3.745-8.96c1.51-2.96 3.268-5.886 5.044-8.122 1.262-1.592 2.707-3.037 4.3-3.486 1.77-.507 3.88.602 5.308 2.183 2.743 3.05 5.185 7.213 7.16 12.033a52.86 52.86 0 0 1 2.396 7.184c4.948 19.376 2.636 40.328-3.168 59.627-.607 1.976-1.445 3.934-1.988 6.081-.017.089-.064.16-.088.254-.148.431-.254.678-.307.708-1.392 2.949-5.462 5.132-10.375 5.067-4.925-.03-8.883-2.277-10.205-5.297l-.212-.684c-4.217-13.986-6.57-28.95-5.798-43.655Z"/></mask><g mask="url(#b)"><path fill="#ED6C30" d="M88.37 22.744c-.27-.413-.601-.814-.784-1.174-1.085-2.064-2.365-3.875-3.964-5.532a18.138 18.138 0 0 0-4.86-3.551c-1.35-.678-3.54-1.463-4.943-.802-1.67.784-2.796 2.17-3.981 3.544-1.092 1.269-2.271 2.507-3.085 3.923-.838 1.44-1.292 3.238-1.375 4.89-.03.596-.118 1.746.26 2.253.466.631 1.988.879 2.713 1.109 1.9.602 3.934.419 5.898.625 2.69.307 5.08-.076 7.745-.643 1.504-.324 3.044-.578 4.477-1.126.779-.295 2.271-1.34 2.348-2.254.023-.436-.183-.855-.449-1.262Z"/></g><g fill="#fff"><path d="M71.684 45.081a4.277 4.277 0 0 0 4.14 4.424 4.277 4.277 0 0 0 4.418-4.146 4.28 4.28 0 0 0-4.152-4.424c-2.354-.089-4.33 1.77-4.406 4.146ZM79.761 60.934a4.288 4.288 0 1 0-8.57-.274 4.288 4.288 0 0 0 8.57.274ZM70.687 76.243c-.071 2.36 1.775 4.347 4.146 4.418a4.295 4.295 0 0 0 4.43-4.147 4.294 4.294 0 0 0-4.152-4.423 4.295 4.295 0 0 0-4.424 4.152Z"/></g><path fill="#ED6C30" d="M76.597 114.347c.366-3.044.372-4.276.407-6.836.03-2.366.13-7.88-.33-10.948-.26-1.746-.508-2.772-2.094-3.061-.614-.106-1.174.36-1.498.85-.49.737-.637 1.556-.767 2.453-.372 2.707-.832 8.311-.962 11.036-.059 1.215-.017 2.884 0 4.105.042 3.345.655 6.259 2.76 6.205 1.912-.047 2.313-2.406 2.484-3.804Z"/></g><defs><clipPath id="a"><path fill="#fff" d="M0 75.5 75.5 0 151 75.5 75.5 151z"/></clipPath></defs></svg>
