<svg width="19" height="19" viewBox="0 0 19 19" fill="none" xmlns="http://www.w3.org/2000/svg">
<path d="M15.8232 0.0997348L16.2092 0.155735C16.8092 0.250735 17.4812 0.409735 17.8942 0.822735C18.3082 1.23673 18.4672 1.90873 18.5622 2.50873L18.6182 2.89373C18.7442 3.80374 18.7772 4.99673 18.5622 6.32073C18.1382 8.93373 16.7472 12.0507 13.2542 14.4657C13.2381 14.6443 13.2324 14.8236 13.2372 15.0027L13.2542 15.5457C13.2642 15.9077 13.2582 16.2687 13.1582 16.6157C12.9682 17.2757 12.2912 17.7107 11.6582 18.0227L11.3482 18.1697L10.9482 18.3457L10.6752 18.4557C9.96823 18.7257 9.11523 18.9147 8.55723 18.3557C8.30423 18.1027 8.18723 17.7587 8.09323 17.4147L8.04723 17.2427C7.88723 16.6357 7.70623 16.0327 7.48023 15.4487C7.41779 15.5246 7.35171 15.5973 7.28223 15.6667C6.73723 16.2107 5.99823 16.4847 5.25923 16.6967L4.76823 16.8317L4.27823 16.9617L3.80023 17.0817L3.36823 17.1817L2.85123 17.2917L2.52823 17.3547C2.3671 17.3848 2.20107 17.3752 2.0445 17.3267C1.88793 17.2782 1.74553 17.1922 1.62963 17.0763C1.51372 16.9604 1.4278 16.818 1.37929 16.6615C1.33079 16.5049 1.32115 16.3389 1.35123 16.1777L1.46223 15.6267L1.59123 15.0487L1.71523 14.5387L1.94023 13.6937C2.16323 12.8737 2.43423 12.0287 3.04023 11.4237L3.13923 11.3287L2.37623 11.0547L1.60923 10.7907C1.16023 10.6427 0.688228 10.4867 0.362228 10.1607C-0.233772 9.56474 0.0192279 8.63474 0.316228 7.90373L0.482228 7.51673L0.619228 7.21573C0.936228 6.54173 1.38623 5.76573 2.10223 5.55973C2.44923 5.45973 2.80923 5.45373 3.17223 5.46273L3.71523 5.48074C3.89523 5.48374 4.07523 5.48074 4.25223 5.46374C6.66623 1.97074 9.78423 0.579735 12.3972 0.155735C13.5303 -0.0310613 14.6847 -0.0499305 15.8232 0.0997348ZM12.7172 2.12973C10.5192 2.48673 7.84823 3.66374 5.76423 6.79874C5.51123 7.17874 5.08423 7.35974 4.64923 7.42874C4.40323 7.46874 4.15523 7.47873 3.90623 7.47873L3.15923 7.46773C3.03523 7.46773 2.91023 7.46773 2.78623 7.47373C2.48223 7.87773 2.27023 8.35773 2.11123 8.83473L3.61123 9.37973L4.22823 9.61274C5.35623 10.0547 6.44823 10.5897 7.28823 11.4297C8.70323 12.8447 9.42223 14.6957 9.94223 16.5867C10.3982 16.4267 10.8562 16.2227 11.2442 15.9317L11.2502 15.5587L11.2392 14.8127C11.2392 14.5647 11.2492 14.3167 11.2892 14.0687C11.3572 13.6337 11.5392 13.2067 11.9192 12.9537C15.0542 10.8697 16.2312 8.19873 16.5882 6.00073C16.7682 4.89073 16.7382 3.89873 16.6372 3.16773C16.5984 2.86446 16.5339 2.56504 16.4442 2.27273C16.1519 2.1834 15.8525 2.11917 15.5492 2.08073C14.6079 1.9587 13.6537 1.97455 12.7172 2.12973ZM4.45323 12.8377C4.10323 13.2607 3.94023 13.8157 3.80923 14.3657L3.70123 14.8337L3.64623 15.0597L4.34023 14.8967C4.89023 14.7667 5.44623 14.6017 5.86823 14.2517C6.05574 14.0641 6.16102 13.8097 6.16093 13.5444C6.16084 13.2791 6.05537 13.0247 5.86773 12.8372C5.68009 12.6497 5.42564 12.5444 5.16037 12.5445C4.8951 12.5446 4.64074 12.6501 4.45323 12.8377ZM10.1102 5.76774C10.2959 5.58198 10.5164 5.43462 10.759 5.33406C11.0017 5.23351 11.2617 5.18173 11.5244 5.18168C11.787 5.18164 12.0471 5.23332 12.2898 5.33379C12.5325 5.43426 12.753 5.58155 12.9387 5.76724C13.1245 5.95292 13.2718 6.17338 13.3724 6.41602C13.473 6.65866 13.5247 6.91873 13.5248 7.18138C13.5248 7.44403 13.4731 7.70412 13.3727 7.94679C13.2722 8.18947 13.1249 8.40998 12.9392 8.59574C12.7535 8.78149 12.533 8.92884 12.2902 9.02937C12.0475 9.1299 11.7874 9.18164 11.5247 9.18164C10.9942 9.18164 10.4854 8.97088 10.1102 8.59574C9.92447 8.40998 9.77712 8.18946 9.67659 7.94676C9.57607 7.70406 9.52432 7.44393 9.52432 7.18123C9.52432 6.65069 9.73508 6.14188 10.1102 5.76673V5.76774Z" fill="#CBCDFA"/>
</svg>
