<svg width="32" height="32" viewBox="0 0 34 42" fill="current" xmlns="http://www.w3.org/2000/svg">
<path d="M27.625 14.6986H10.625V10.4983C10.6219 9.25127 10.9933 8.03133 11.6923 6.99305C12.3913 5.95476 13.3863 5.14483 14.5513 4.66582C15.7164 4.18682 16.9991 4.06029 18.2369 4.30226C19.4748 4.54424 20.6122 5.14383 21.505 6.0251C22.3039 6.83169 22.8753 7.83083 23.1625 8.92325C23.2323 9.19077 23.3547 9.44209 23.5227 9.66286C23.6907 9.88362 23.9011 10.0695 24.1419 10.2099C24.3826 10.3503 24.649 10.4425 24.9258 10.4812C25.2025 10.5199 25.4843 10.5043 25.755 10.4353C26.0257 10.3664 26.28 10.2454 26.5034 10.0793C26.7268 9.91327 26.9149 9.70534 27.0569 9.46743C27.199 9.22951 27.2923 8.96627 27.3314 8.69273C27.3705 8.41919 27.3548 8.14071 27.285 7.8732C26.8009 6.05618 25.8407 4.39738 24.5012 3.06394C23.0141 1.59883 21.1211 0.602059 19.0612 0.199482C17.0012 -0.203095 14.8668 0.00658052 12.9274 0.802031C10.9879 1.59748 9.33046 2.94304 8.16427 4.66879C6.99807 6.39455 6.37544 8.42311 6.375 10.4983V14.6986C4.68425 14.6986 3.06274 15.3623 1.86719 16.5439C0.67165 17.7254 0 19.3279 0 20.9989V35.6997C0 37.3706 0.67165 38.9731 1.86719 40.1547C3.06274 41.3362 4.68425 42 6.375 42H27.625C29.3158 42 30.9373 41.3362 32.1328 40.1547C33.3284 38.9731 34 37.3706 34 35.6997V20.9989C34 19.3279 33.3284 17.7254 32.1328 16.5439C30.9373 15.3623 29.3158 14.6986 27.625 14.6986ZM29.75 35.6997C29.75 36.2567 29.5261 36.7908 29.1276 37.1847C28.7291 37.5785 28.1886 37.7998 27.625 37.7998H6.375C5.81141 37.7998 5.27091 37.5785 4.8724 37.1847C4.47388 36.7908 4.25 36.2567 4.25 35.6997V20.9989C4.25 20.4419 4.47388 19.9077 4.8724 19.5139C5.27091 19.12 5.81141 18.8988 6.375 18.8988H27.625C28.1886 18.8988 28.7291 19.12 29.1276 19.5139C29.5261 19.9077 29.75 20.4419 29.75 20.9989V35.6997Z" fill="current"/>
</svg>
